<svg aria-hidden="true" style="width:0;height:0;position:absolute;overflow:hidden" xmlns="http://www.w3.org/2000/svg"><defs><symbol id="icon-logo" viewBox="0 0 90 32"><path fill="#5e1331" style="fill:var(--color1,#5e1331)" d="M2.146 31.055a3.302 3.302 0 0 1-1.234-1.294 3.74 3.74 0 0 1-.456-1.808 3.639 3.639 0 0 1 .456-1.835 3.299 3.299 0 0 1 1.261-1.266 3.606 3.606 0 0 1 1.824-.459c.473-.007.943.076 1.386.243.438.182.84.442 1.186.769l-.613.808a2.73 2.73 0 0 0-1.918-.746 2.33 2.33 0 0 0-1.227.319c-.352.211-.64.515-.832.879a2.65 2.65 0 0 0-.301 1.28c-.006.439.093.874.29 1.266a2.213 2.213 0 0 0 2.03 1.229c.394.007.785-.08 1.14-.252.335-.171.627-.416.853-.718l.743.766a3.378 3.378 0 0 1-1.199.966 3.562 3.562 0 0 1-1.557.33 3.53 3.53 0 0 1-1.824-.475zM8.471 31.226a2.133 2.133 0 0 1-.853-.847 2.466 2.466 0 0 1-.308-1.241 2.435 2.435 0 0 1 .308-1.227c.2-.354.496-.644.853-.837a2.7 2.7 0 0 1 2.486 0c.36.195.658.487.86.844.206.373.311.794.306 1.221.006.431-.099.857-.306 1.234a2.163 2.163 0 0 1-.86.847 2.69 2.69 0 0 1-2.486 0v.007zm2.18-1.072a1.626 1.626 0 0 0 0-2.03 1.302 1.302 0 0 0-1.446-.291 1.31 1.31 0 0 0-.43.291 1.592 1.592 0 0 0 0 2.019 1.213 1.213 0 0 0 .935.397 1.215 1.215 0 0 0 .939-.39zM18.108 25.18a.821.821 0 0 0-.192.58v1.131h1.238v.938h-1.227v3.568h-1.094v-3.568h-2.36v3.568h-1.097v-3.568h-.821v-.938h.821v-1.195c-.022-.455.13-.9.424-1.246a1.504 1.504 0 0 1 1.174-.459c.199-.001.398.019.593.06.198.046.389.114.572.202l-.312.849a1.702 1.702 0 0 0-.634-.122.68.68 0 0 0-.525.209.806.806 0 0 0-.196.581v1.131h2.36v-1.204a1.803 1.803 0 0 1 .415-1.246 1.466 1.466 0 0 1 1.161-.459c.226-.003.451.029.668.094.212.071.413.172.597.301l-.39.787a1.182 1.182 0 0 0-.664-.193.665.665 0 0 0-.513.209zM23.275 27.366c.38.445.576 1.02.547 1.606 0 .108-.014.282-.041.525h-3.213c.049.328.223.623.486.824.274.196.604.297.94.287.223.003.446-.032.657-.106a1.68 1.68 0 0 0 .529-.317l.456.707c-.246.195-.521.35-.814.459-.3.109-.616.162-.935.158a2.545 2.545 0 0 1-1.261-.305 2.171 2.171 0 0 1-.853-.847 2.521 2.521 0 0 1-.301-1.221 2.483 2.483 0 0 1 .296-1.2c.193-.354.479-.648.825-.851a2.274 2.274 0 0 1 1.19-.314 1.92 1.92 0 0 1 1.491.596v-.002zm-2.28.592a1.412 1.412 0 0 0-.422.803h2.219a1.153 1.153 0 0 0-.301-.805.977.977 0 0 0-.723-.284 1.136 1.136 0 0 0-.773.287zM28.317 27.366c.38.445.576 1.02.547 1.606 0 .108-.014.282-.041.525H25.61c.05.327.224.622.486.824.274.196.604.296.939.287.223.003.446-.032.657-.106a1.68 1.68 0 0 0 .529-.317l.456.707c-.245.195-.519.35-.812.459-.3.109-.616.162-.935.158a2.538 2.538 0 0 1-1.259-.305 2.157 2.157 0 0 1-.855-.847 2.638 2.638 0 0 1 0-2.444c.193-.354.479-.648.825-.851a2.264 2.264 0 0 1 1.19-.314 1.916 1.916 0 0 1 1.491.597l-.007.021zm-2.274.569a1.412 1.412 0 0 0-.422.803h2.198a1.153 1.153 0 0 0-.301-.805.977.977 0 0 0-.723-.284 1.12 1.12 0 0 0-.773.287zM32.439 27.83h-.835v-.938h.835v-1.195a1.8 1.8 0 0 1 .42-1.246 1.488 1.488 0 0 1 1.165-.459c.223-.002.445.029.659.094.212.071.413.172.597.301l-.392.778c-.1-.061-.206-.11-.317-.147a1.153 1.153 0 0 0-.335-.046.675.675 0 0 0-.518.209.81.81 0 0 0-.196.58v1.131h1.236v.938h-1.224v3.57h-1.095v-3.57zM38.537 26.983l-.283.918a1.647 1.647 0 0 0-.581-.103 1.04 1.04 0 0 0-.773.305 1.153 1.153 0 0 0-.29.828v2.457h-1.097v-4.497h.743l.212.665c.116-.236.298-.434.522-.569.235-.136.502-.204.773-.197.27-.006.537.06.773.193zM39.923 31.225a2.171 2.171 0 0 1-.853-.847 2.5 2.5 0 0 1-.306-1.241 2.457 2.457 0 0 1 .306-1.227 2.19 2.19 0 0 1 .853-.844 2.716 2.716 0 0 1 2.49.007c.36.195.658.487.86.844.206.375.311.799.303 1.227.007.431-.097.856-.303 1.234a2.163 2.163 0 0 1-.86.847 2.694 2.694 0 0 1-2.488 0h-.002zm2.185-1.064a1.626 1.626 0 0 0 0-2.03 1.302 1.302 0 0 0-1.446-.291 1.31 1.31 0 0 0-.43.291 1.592 1.592 0 0 0 0 2.019 1.213 1.213 0 0 0 .935.397 1.215 1.215 0 0 0 .94-.39zM50.907 27.229c.285.359.427.81.401 1.269V31.4h-1.095v-2.781a.932.932 0 0 0-.196-.631.66.66 0 0 0-.526-.229.857.857 0 0 0-.748.363 1.463 1.463 0 0 0-.258.86v2.416H47.4v-2.79a.933.933 0 0 0-.189-.603.647.647 0 0 0-.543-.244.83.83 0 0 0-.736.363 1.463 1.463 0 0 0-.258.86V31.4h-1.095v-4.508h.743l.228.718c.14-.256.345-.47.593-.622.252-.148.54-.223.832-.218.287-.007.571.066.819.213.23.138.413.342.527.585a1.6 1.6 0 0 1 .593-.585c.264-.146.563-.22.864-.213a1.433 1.433 0 0 1 1.14.459zM60.929 31.368v.032h-1.234l-.566-1.246h-3.204l-.55 1.246h-1.247v-.023l3.224-6.883h.363l3.213 6.874zm-3.856-3.791-.75 1.638h2.417l-.743-1.638a11.738 11.738 0 0 1-.456-1.172c-.152.407-.304.798-.456 1.172zM61.643 27.83h-.835v-.938h.835v-1.195c-.023-.454.128-.9.422-1.246a1.466 1.466 0 0 1 1.163-.459c.223-.002.445.029.659.094.212.071.413.172.597.301l-.392.787a1.53 1.53 0 0 0-.315-.147 1.168 1.168 0 0 0-.338-.046.675.675 0 0 0-.518.209.81.81 0 0 0-.196.58v1.131h1.236v.938h-1.224v3.57h-1.095V27.83zM67.747 26.983l-.28.918a1.695 1.695 0 0 0-.582-.103 1.045 1.045 0 0 0-.775.305 1.153 1.153 0 0 0-.29.828v2.457h-1.095v-4.497h.741l.212.665c.116-.236.298-.434.522-.569.236-.136.504-.204.775-.197a1.51 1.51 0 0 1 .771.193zM68.507 25.765a.69.69 0 0 1 0-.938.743.743 0 0 1 .994 0 .638.638 0 0 1 .187.473.629.629 0 0 1-.191.459.748.748 0 0 1-.99 0v.007zm-.057 1.12h1.099v4.508h-1.097l-.002-4.508zM71.74 31.251a2.214 2.214 0 0 1-.86-.817 2.66 2.66 0 0 1-.014-2.547c.203-.353.501-.64.86-.828a2.476 2.476 0 0 1 1.186-.289 2.441 2.441 0 0 1 1.665.606l-.531.739a1.699 1.699 0 0 0-.488-.294 1.649 1.649 0 0 0-.566-.09 1.276 1.276 0 0 0-.956.388 1.585 1.585 0 0 0 0 2.064 1.274 1.274 0 0 0 .933.376c.212.003.422-.035.62-.11.195-.084.372-.205.522-.356l.552.739a2.38 2.38 0 0 1-1.806.688 2.367 2.367 0 0 1-1.12-.278zM78.67 27.245a1.579 1.579 0 0 1 .488 1.243v2.911h-.734l-.201-.688a1.714 1.714 0 0 1-.657.567 2.117 2.117 0 0 1-.942.202 1.478 1.478 0 0 1-1.017-.34 1.147 1.147 0 0 1-.388-.917 1.344 1.344 0 0 1 .613-1.179 2.888 2.888 0 0 1 1.656-.42c.162 0 .349 0 .563.021v-.195a.62.62 0 0 0-.242-.521 1.14 1.14 0 0 0-.684-.177 3.26 3.26 0 0 0-1.396.365l-.31-.84a4.52 4.52 0 0 1 1.874-.459c.494-.031.981.123 1.368.434l.007-.007zm-.919 3.079c.224-.264.34-.603.326-.95a4.555 4.555 0 0 0-.522-.03 1.79 1.79 0 0 0-.924.202.633.633 0 0 0-.331.575.488.488 0 0 0 .171.404.714.714 0 0 0 .47.142 1.036 1.036 0 0 0 .809-.344zM52.675 12.933c-.31-2.065-.602-4.15-.912-6.22s-.659-4.178-.99-6.268c-.018-.128.016-.268-.119-.36-.324-.216-1.596.025-1.824.351-2.02 2.906-4.04 5.821-6.059 8.744-.173.25-.251.383-.495.028-1.902-2.753-3.854-5.486-5.721-8.273-.456-.688-.944-1.026-1.744-.89a.363.363 0 0 1-.114 0c-.287-.037-.376.085-.417.379-.228 1.567-.472 3.129-.716 4.692-.274 1.79-.551 3.578-.832 5.366-.198 1.283-.399 2.56-.597 3.843l-.684 4.465c-.043.273.094.324.324.324h4.332c.212 0 .338-.037.376-.303.333-2.377.67-4.756 1.042-7.128.073-.459.082-.934.194-1.484 1.275 1.982 2.643 3.767 3.924 5.607a1.015 1.015 0 0 0 .855.476 1.006 1.006 0 0 0 .855-.476c.718-.984 1.427-1.978 2.141-2.967.561-.78 1.12-1.562 1.685-2.354.203.163.166.346.192.507.399 2.581.805 5.162 1.179 7.746.05.344.176.385.456.385 1.386 0 2.777-.016 4.166 0 .379 0 .422-.11.363-.475a365.871 365.871 0 0 1-.86-5.713zM68.055 9.574c-.322-.184-.358-.298-.032-.539a4.464 4.464 0 0 0 1.571-2.32c.664-2.09-.066-4.382-1.836-5.573a6.133 6.133 0 0 0-3.386-1.01c-2.661-.034-5.324 0-7.981-.03-.44 0-.527.142-.524.558.016 2.983 0 5.965 0 8.948s.014 5.928-.016 8.893c0 .528.151.617.632.615 2.622-.025 5.245-.018 7.869 0a9.64 9.64 0 0 0 2.032-.202c2.789-.599 4.474-3.109 3.984-5.924-.26-1.503-.987-2.661-2.317-3.412l.005-.005zm-7.123-3.772V4.425c0-.165-.041-.372.228-.372.885 0 1.788-.11 2.622.275.296.134.542.358.703.64s.23.609.196.934c-.103.794-.6 1.422-1.277 1.576s-1.432.106-2.153.112c-.306 0-.317-.193-.315-.42V5.793l-.005.007zm4.316 7.824c-.064.801-.912 1.526-1.842 1.546-.702.016-1.407 0-2.112 0-.271 0-.369-.078-.36-.358.016-.516 0-1.032 0-1.549v-1.491c0-.229.057-.376.315-.365.816.034 1.635-.078 2.444.078 1.14.229 1.651.918 1.555 2.127zM29.229 14.665c-2.207.021-4.415 0-6.613.018-.374 0-.54-.053-.515-.486.04-.65.04-1.302 0-1.952-.02-.397.082-.514.493-.509 1.806.023 3.614 0 5.42.023.49 0 .609-.151.595-.617a46.864 46.864 0 0 1 0-3.159c.02-.486-.164-.569-.591-.567-1.788.018-3.575 0-5.363.016-.41 0-.584-.092-.556-.541.042-.611.042-1.224 0-1.835-.03-.459.132-.53.545-.528 2.13.023 4.262 0 6.385.023.488 0 .609-.149.593-.617a55.479 55.479 0 0 1 0-3.212c.023-.491-.141-.617-.611-.617-3.8.018-7.601.018-11.401 0-.511 0-.581.184-.579.629.016 2.948 0 5.896 0 8.845v8.948c0 .418.059.592.545.59 3.918-.023 7.837-.023 11.757 0 .39 0 .527-.092.515-.502a58.824 58.824 0 0 1 0-3.334c.016-.486-.141-.619-.611-.615zM14.165 2.629A3.43 3.43 0 0 0 14.68.638c-.014-.395-.123-.53-.522-.528C9.727.119 5.297.119.868.11.503.11.375.229.38.601a92.812 92.812 0 0 1 0 3.731c0 .431.123.558.547.553 1.959-.025 3.918-.021 5.876-.018.141 0 .326-.089.42.064s-.066.28-.139.406C4.911 9.07 2.751 12.81.556 16.531A3.677 3.677 0 0 0 0 18.518c0 .544.18.606.645.601 1.104-.012 2.207-.017 3.309-.014h10.151c.392 0 .529-.101.522-.512a79.168 79.168 0 0 1 0-3.614c0-.486-.148-.633-.62-.624-2.052.041-4.104-.041-6.157.053-.155 0-.367.085-.456-.103s.091-.278.166-.402c2.194-3.767 4.378-7.537 6.613-11.286zM89.971 18.292c-2.723-5.736-5.473-11.472-8.15-17.223-.365-.785-.747-1.17-1.634-1.046a.763.763 0 0 0-.71.486c-1.423 3.031-2.859 6.05-4.307 9.074s-2.853 6.018-4.289 9.014c-.189.399-.144.523.322.516a206.19 206.19 0 0 1 4.449 0c.303 0 .479-.06.588-.383.192-.555.456-1.088.684-1.634a.577.577 0 0 1 .636-.415c1.956.021 3.914.021 5.874 0 .351 0 .547.083.67.443.18.541.456 1.048.642 1.583a.506.506 0 0 0 .575.404c.738-.021 1.482 0 2.223 0s1.484-.018 2.226 0c.431.016.57-.103.351-.509-.053-.101-.091-.211-.139-.312l-.011.002zm-7.969-5.327c-1.024-.018-2.052 0-3.072 0-.139 0-.324.067-.319-.119.251-.603.483-1.147.698-1.686.342-.886.674-1.773.996-2.661.041-.115.059-.246.185-.262s.139.131.174.229a54.206 54.206 0 0 0 1.596 4.075c.148.333.116.429-.265.422z"/></symbol><symbol id="icon-order" viewBox="0 0 31 32"><path fill="#670631" style="fill:var(--color1,#670631)" d="M26.922 12.058h-.997V8.402a6.988 6.988 0 0 0-6.98-6.98h-7.977a6.988 6.988 0 0 0-6.98 6.98v3.656h-.997A2.995 2.995 0 0 0 0 15.049v2.081c0 .711.445 1.356 1.11 1.609 1.183.438 1.802-.372 2.38-1.037.512-.585 1.482-.585 1.994 0 .642.738 1.559 1.13 2.493 1.13s1.851-.391 2.493-1.13c.512-.585 1.482-.585 1.994 0 .642.738 1.559 1.13 2.493 1.13s1.85-.391 2.493-1.13c.512-.585 1.482-.585 1.994 0 .642.738 1.559 1.13 2.493 1.13s1.85-.391 2.493-1.13c.512-.585 1.482-.585 1.994 0 .578.665 1.202 1.483 2.38 1.037a1.728 1.728 0 0 0 1.11-1.609v-2.081a2.995 2.995 0 0 0-2.991-2.991zm-2.992 0H5.982V8.402a4.99 4.99 0 0 1 4.985-4.985h7.977a4.99 4.99 0 0 1 4.985 4.985v3.656zM18.445 19.519c-.77.674-1.594 1.028-2.493 1.2v3.303h4.985v-3.303c-.9-.172-1.719-.523-2.492-1.2z"/><path fill="#670631" style="fill:var(--color1,#670631)" d="M27.916 27.015v-6.191a3.708 3.708 0 0 1-2.509-1.249l-.02-.023c-.738.634-1.537.992-2.456 1.168v3.303h2.991v.997c0 .351-.065.685-.178.997H22.93v3.988h-1.994v-3.988h-4.985v3.988h-1.994v-3.988H8.972v3.988H6.978v-3.988H4.164a2.94 2.94 0 0 1-.178-.997v-.997h2.991V20.72c-.9-.172-1.7-.519-2.456-1.168l-.014.017a3.748 3.748 0 0 1-2.515 1.254v6.192c0 .342.038.674.104.997h-.003c.458 2.25 2.46 3.989 4.885 3.989h15.953a5.003 5.003 0 0 0 4.885-3.989h-.003c.066-.322.104-.655.104-.997z"/><path fill="#670631" style="fill:var(--color1,#670631)" d="M11.466 19.519c-.77.674-1.594 1.028-2.493 1.2v3.303h4.985v-3.303c-.9-.172-1.719-.523-2.492-1.2z"/></symbol><symbol id="icon-compass" viewBox="0 0 32 32"><path fill="#5e1331" style="fill:var(--color1,#5e1331)" d="M15.874 14.144a1.857 1.857 0 0 0-1.084 3.258 1.86 1.86 0 0 0 2.832-.484 1.86 1.86 0 0 0 .24-1.052 1.877 1.877 0 0 0-1.988-1.723z"/><path fill="#5e1331" style="fill:var(--color1,#5e1331)" d="M16.003 0a16.004 16.004 0 0 0-3.118 31.7 16.002 16.002 0 0 0 19.122-15.704A16.046 16.046 0 0 0 16.003-.001zM14.83 3.433a.921.921 0 0 1 .922-.922h.278a.924.924 0 0 1 .659.267.92.92 0 0 1 .277.655v3.67a.931.931 0 0 1-.922.922h-.278a.921.921 0 0 1-.922-.922l-.014-3.67zM7.917 16.139a.931.931 0 0 1-.922.922h-3.67a.931.931 0 0 1-.922-.922v-.278a.927.927 0 0 1 .566-.865.91.91 0 0 1 .356-.072h3.67a.921.921 0 0 1 .922.922v.292zm9.05 12.428a.931.931 0 0 1-.922.922h-.278a.931.931 0 0 1-.922-.922v-3.67a.921.921 0 0 1 .922-.922h.278a.931.931 0 0 1 .922.922v3.67zm6.309-20.352-3.69 9.62a3.283 3.283 0 0 1-1.262 1.452l-9.043 4.979c-.488.271-.733.061-.529-.461l3.677-9.64c.264-.6.704-1.107 1.262-1.452l9.043-4.979c.488-.271.733-.068.529.461l.014.02zm5.19 8.867h-3.663a.931.931 0 0 1-.922-.922v-.278a.92.92 0 0 1 .909-.956h3.663a.93.93 0 0 1 .93.923v.278a.94.94 0 0 1-.93.937l.014.02z"/></symbol></defs></svg>